<?xml version="1.0" encoding="UTF-8" standalone="no"?>
<!-- Created with Inkscape (http://www.inkscape.org/) -->

<svg
   width="50mm"
   height="50mm"
   viewBox="0 0 50 50"
   version="1.1"
   id="svg43226"
   xml:space="preserve"
   inkscape:version="1.2 (dc2aeda, 2022-05-15)"
   sodipodi:docname="bookmark_button.svg"
   inkscape:export-filename="bookmark_button.png"
   inkscape:export-xdpi="96"
   inkscape:export-ydpi="96"
   xmlns:inkscape="http://www.inkscape.org/namespaces/inkscape"
   xmlns:sodipodi="http://sodipodi.sourceforge.net/DTD/sodipodi-0.dtd"
   xmlns="http://www.w3.org/2000/svg"
   xmlns:svg="http://www.w3.org/2000/svg"><sodipodi:namedview
     id="namedview43228"
     pagecolor="#ffffff"
     bordercolor="#000000"
     borderopacity="0.25"
     inkscape:showpageshadow="2"
     inkscape:pageopacity="0.0"
     inkscape:pagecheckerboard="0"
     inkscape:deskcolor="#d1d1d1"
     inkscape:document-units="mm"
     showgrid="false"
     inkscape:zoom="2.2454653"
     inkscape:cx="14.918957"
     inkscape:cy="123.80508"
     inkscape:window-width="1440"
     inkscape:window-height="872"
     inkscape:window-x="0"
     inkscape:window-y="28"
     inkscape:window-maximized="0"
     inkscape:current-layer="layer1" /><defs
     id="defs43223"><filter
       id="mask-powermask-path-effect44280_inverse"
       inkscape:label="filtermask-powermask-path-effect44280"
       style="color-interpolation-filters:sRGB"
       height="100"
       width="100"
       x="-50"
       y="-50"><feColorMatrix
         id="mask-powermask-path-effect44280_primitive1"
         values="1"
         type="saturate"
         result="fbSourceGraphic" /><feColorMatrix
         id="mask-powermask-path-effect44280_primitive2"
         values="-1 0 0 0 1 0 -1 0 0 1 0 0 -1 0 1 0 0 0 1 0 "
         in="fbSourceGraphic" /></filter><filter
       id="mask-powermask-path-effect44310_inverse"
       inkscape:label="filtermask-powermask-path-effect44310"
       style="color-interpolation-filters:sRGB"
       height="100"
       width="100"
       x="-50"
       y="-50"><feColorMatrix
         id="mask-powermask-path-effect44310_primitive1"
         values="1"
         type="saturate"
         result="fbSourceGraphic" /><feColorMatrix
         id="mask-powermask-path-effect44310_primitive2"
         values="-1 0 0 0 1 0 -1 0 0 1 0 0 -1 0 1 0 0 0 1 0 "
         in="fbSourceGraphic" /></filter></defs><g
     inkscape:label="Layer 1"
     inkscape:groupmode="layer"
     id="layer1"><path
       style="fill:#000000;stroke-width:1"
       d="m -77.329571,57.895385 c -2.398917,-0.331757 -4.681606,-1.976549 -5.777148,-4.162729 -0.191324,-0.381792 -0.640147,-1.655289 -0.640147,-1.816363 0,-0.02063 3.356077,-0.03753 7.457951,-0.03753 h 7.457954 l -0.141071,0.499122 c -0.223223,0.789784 -0.936323,2.15704 -1.459829,2.799 -1.602034,1.964524 -4.39374,3.064777 -6.89771,2.718491 z m -16.33021,-8.111729 c -1.054693,-0.177413 -2.058828,-0.950769 -2.562253,-1.973369 -0.282785,-0.574419 -0.311844,-0.713558 -0.311415,-1.491172 7.14e-4,-1.290439 0.251726,-1.74447 1.866997,-3.377022 2.142305,-2.165221 3.279281,-4.213477 3.894736,-7.016337 0.184187,-0.838818 0.209048,-1.342813 0.275285,-5.580575 0.06597,-4.220237 0.09166,-4.744482 0.273188,-5.572656 0.912738,-4.164183 3.431387,-7.608429 7.017107,-9.595882 1.143346,-0.633722 2.262664,-1.066873 3.575085,-1.383485 0.586056,-0.141381 1.119034,-0.27057 1.184395,-0.287088 0.08724,-0.02204 0.118834,-0.35025 0.118834,-1.234141 0,-1.448103 0.107559,-1.860261 0.619179,-2.372657 0.957708,-0.959164 2.562316,-0.717388 3.178457,0.478916 0.22029,0.427718 0.245888,0.596217 0.275185,1.811382 l 0.0323,1.339796 0.652484,0.111886 c 0.928823,0.159275 2.374194,0.636656 3.370969,1.113372 3.512068,1.679678 6.131155,4.662296 7.362001,8.383858 0.644878,1.949845 0.687693,2.372443 0.763841,7.539445 l 0.06796,4.610946 0.291192,1.107523 c 0.732581,2.786311 1.829022,4.646351 4.025569,6.82911 1.189727,1.182258 1.457956,1.604419 1.610083,2.534066 0.119373,0.729519 -0.0254,1.532848 -0.404919,2.246795 -0.498053,0.936931 -1.385288,1.56722 -2.494854,1.772333 -0.664721,0.122881 -33.952089,0.127639 -34.681405,0.005 z"
       id="path44133" /><path
       style="fill:#000000;stroke-width:1"
       d="m -94.638776,117.49553 c -0.577189,-0.1328 -1.194191,-0.77999 -1.324968,-1.38979 -0.05448,-0.25404 -0.0743,-0.56866 -0.04403,-0.69915 0.03026,-0.1305 0.687974,-1.98713 1.461581,-4.12587 l 1.40656,-3.8886 -0.33627,-0.61573 c -2.807776,-5.14108 -3.313484,-11.150805 -1.405578,-16.703555 1.001013,-2.91334 2.516973,-5.37614 4.688586,-7.61699 2.725289,-2.81218 6.077617,-4.75353 9.849752,-5.70404 4.432265,-1.11684 9.184245,-0.71905 13.382371,1.12027 5.736985,2.51353 10.137424,7.67634 11.709932,13.73866 1.051959,4.05548 0.841562,8.488815 -0.586729,12.363205 -0.748155,2.02949 -2.157492,4.47632 -3.510702,6.09512 -4.246645,5.08012 -10.738159,7.8855 -17.217312,7.44065 -2.975516,-0.2043 -5.191007,-0.79933 -7.900202,-2.12186 l -1.430754,-0.69844 -3.868454,1.40327 c -2.127649,0.77181 -4.007558,1.42322 -4.177574,1.44759 -0.170017,0.0243 -0.483308,0.005 -0.696203,-0.0447 z"
       id="path44137"
       clip-path="none" /><path
       style="fill:#000000;stroke-width:1"
       d="m -70.046666,-102.98571 c -0.533209,-0.20487 -1.145407,-0.63524 -1.424898,-1.00168 -0.135013,-0.17703 -1.942354,-3.52692 -4.016303,-7.44423 l -3.770822,-7.12236 4.857705,-4.8627 c 2.671747,-2.67449 4.904762,-4.98932 4.962265,-5.14405 0.340363,-0.91594 -0.266999,-1.93859 -1.263138,-2.12688 -0.747779,-0.14132 -0.808274,-0.0901 -5.945721,5.03411 l -4.864827,4.85231 -0.731945,-0.3842 c -6.749158,-3.54261 -13.599563,-7.21229 -13.869083,-7.42951 -0.18949,-0.15265 -0.50416,-0.56695 -0.69927,-0.92052 -0.33118,-0.60019 -0.3542,-0.69928 -0.34667,-1.49238 0.005,-0.54528 0.0648,-0.97478 0.16628,-1.19931 0.27455,-0.60698 0.75062,-1.17691 1.20605,-1.44381 0.242008,-0.14179 9.070063,-3.13998 19.617881,-6.66255 18.914169,-6.31662 19.186822,-6.40407 19.829096,-6.36002 1.692843,0.11609 2.874124,1.30133 2.975153,2.98514 l 0.04568,0.76169 -6.361689,19.08743 c -4.103926,12.31326 -6.460987,19.24398 -6.641465,19.52856 -0.323665,0.51035 -0.767769,0.90768 -1.351122,1.2088 -0.520717,0.2688 -1.832187,0.34404 -2.373179,0.13612 z"
       id="path44139" /><g
       id="g44266"
       clip-path="none"
       transform="translate(-58.26052,-23.427521)"><g
         id="g44260"><rect
           style="fill:#f4f4f4;stroke-width:2.99999;stroke-linecap:round;stroke-miterlimit:10;stop-color:#000000"
           id="rect44197"
           width="5.0738888"
           height="5.0738888"
           x="-19.593067"
           y="117.21311"
           rx="18.021118"
           ry="18.021118" /><rect
           style="fill:#f4f4f4;stroke-width:2.99999;stroke-linecap:round;stroke-miterlimit:10;stop-color:#000000"
           id="rect44197-3"
           width="5.0738888"
           height="5.0738888"
           x="-12.96416"
           y="117.20085"
           rx="18.021118"
           ry="18.021118" /><rect
           style="fill:#f4f4f4;stroke-width:2.99999;stroke-linecap:round;stroke-miterlimit:10;stop-color:#000000"
           id="rect44197-3-9"
           width="5.0738888"
           height="5.0738888"
           x="-26.22607"
           y="117.21163"
           rx="18.021118"
           ry="18.021118" /></g></g><rect
       style="fill:#ffffff;fill-opacity:1;stroke-width:2.99999;stroke-linecap:round;stroke-miterlimit:10;stop-color:#000000"
       id="rect7857"
       width="45.313538"
       height="45.313538"
       x="2.2789326"
       y="2.2789323"
       rx="22.656769"
       ry="22.524679" /><path
       style="fill:#141414;fill-opacity:1;stroke-width:0.999998"
       d="m -20.885073,21.283027 c -0.252449,-0.097 -0.542296,-0.300762 -0.674623,-0.474252 -0.06393,-0.08382 -0.919613,-1.669832 -1.901531,-3.524493 l -1.785307,-3.372108 2.299896,-2.302259 c 1.264947,-1.266245 2.322175,-2.362206 2.349399,-2.435466 0.161143,-0.433654 -0.12641,-0.917831 -0.598038,-1.006978 -0.354037,-0.0669 -0.382678,-0.04267 -2.815017,2.383418 l -2.303267,2.297337 -0.346543,-0.181896 c -3.19541,-1.67726 -6.438756,-3.414682 -6.566361,-3.517524 -0.08971,-0.07227 -0.238695,-0.268426 -0.33107,-0.435825 -0.156798,-0.284162 -0.167697,-0.331079 -0.164134,-0.706576 0.0023,-0.258163 0.03068,-0.46151 0.07874,-0.567811 0.129984,-0.28738 0.355383,-0.557215 0.571006,-0.683581 0.114586,-0.06712 4.29425,-1.486631 9.288147,-3.154405 8.954972,-2.990622 9.084059,-3.032024 9.388146,-3.011171 0.801483,0.05496 1.360765,0.61612 1.408596,1.413325 l 0.02163,0.360623 -3.011963,9.037006 c -1.943016,5.829748 -3.058971,9.111122 -3.144421,9.245855 -0.153239,0.241628 -0.363503,0.429747 -0.639692,0.572313 -0.246536,0.127262 -0.867455,0.162882 -1.123589,0.06444 z"
       id="path44139-6" /><rect
       style="fill:#141414;fill-opacity:1;stroke:none;stroke-width:3;stroke-linecap:round;stroke-miterlimit:10;stop-color:#000000"
       id="rect3319"
       width="4.9235382"
       height="5.0773978"
       x="-28.839376"
       y="-1.8813713"
       rx="10.724186"
       ry="10.724186"
       transform="rotate(-28.090473)" /><rect
       style="fill:#141414;fill-opacity:1;stroke:none;stroke-width:3;stroke-linecap:round;stroke-miterlimit:10;stop-color:#000000"
       id="rect3319-8"
       width="4.9235382"
       height="5.0773983"
       x="-19.128967"
       y="-23.728559"
       rx="10.724185"
       ry="10.724185"
       transform="matrix(0.88220518,0.47086519,0.47086519,-0.88220518,0,0)" /><rect
       style="fill:#141414;fill-opacity:1;stroke:none;stroke-width:3;stroke-linecap:round;stroke-miterlimit:10;stop-color:#000000"
       id="rect3319-8-7"
       width="4.9235382"
       height="5.0773983"
       x="-16.921165"
       y="-20.405409"
       rx="10.724185"
       ry="10.724185"
       transform="matrix(0.88220518,0.47086519,0.47086519,-0.88220518,0,0)" /><rect
       style="fill:#ffffff;fill-opacity:1;stroke:none;stroke-width:3;stroke-linecap:round;stroke-miterlimit:10;stop-color:#000000"
       id="rect2954"
       width="6.3667917"
       height="0.99626559"
       x="-29.319574"
       y="-9.2181015"
       rx="0.75978702"
       ry="26.881752"
       transform="rotate(-45)" /><path
       style="fill:#1a1a1a;fill-opacity:1;stroke-width:1"
       d="m -30.812222,49.400802 c -0.235832,-0.08791 -0.4022,-0.24132 -0.518447,-0.47805 l -0.109235,-0.222453 v -8.865903 -8.865907 l 0.124455,-0.262755 c 0.149017,-0.314613 0.48493,-0.667686 0.775148,-0.814752 0.449429,-0.227742 0.114283,-0.216645 6.543157,-0.216645 4.224578,0 5.958736,0.01234 6.105303,0.04348 0.447999,0.09513 0.89367,0.415793 1.123901,0.808653 0.235687,0.402169 0.222229,-0.198536 0.211197,9.42638 -0.0096,8.366693 -0.0134,8.793472 -0.07963,8.94062 -0.141717,0.314804 -0.473106,0.557516 -0.76366,0.559305 -0.210807,0.0017 -0.499992,-0.101299 -0.692717,-0.245769 -0.09562,-0.07166 -1.329886,-1.116369 -2.74283,-2.321541 -1.412945,-1.205162 -2.621141,-2.219756 -2.684883,-2.254636 -0.161945,-0.08861 -0.728132,-0.08808 -0.888523,8.39e-4 -0.06374,0.03534 -1.315399,1.083103 -2.781462,2.328365 -1.650315,1.401776 -2.741095,2.301357 -2.863866,2.361867 -0.243074,0.119813 -0.55974,0.152788 -0.757905,0.07889 z"
       id="path44135" /><path
       style="fill:#ffffff;fill-opacity:1;stroke-width:0.999996"
       d="m -29.414945,46.411071 c -0.187021,-0.06703 -0.318957,-0.183987 -0.411143,-0.364474 l -0.08663,-0.169601 v -6.759505 -6.759508 l 0.0987,-0.200329 c 0.118174,-0.239866 0.384564,-0.509053 0.614715,-0.62118 0.35641,-0.173635 0.09063,-0.165173 5.188915,-0.165173 3.350213,0 4.725451,0.0094 4.841683,0.03315 0.355276,0.07253 0.708706,0.317008 0.891286,0.61653 0.186907,0.30662 0.176234,-0.151367 0.167485,7.186821 -0.0076,6.378901 -0.01062,6.704283 -0.06315,6.816472 -0.112385,0.240011 -0.375187,0.42506 -0.605606,0.426423 -0.167175,0.0014 -0.396507,-0.07723 -0.549343,-0.187379 -0.07583,-0.05463 -1.05464,-0.851137 -2.175144,-1.769979 -1.120508,-0.918835 -2.078642,-1.692377 -2.129192,-1.718971 -0.128426,-0.06756 -0.57743,-0.06715 -0.704624,6.4e-4 -0.05055,0.02693 -1.04315,0.825776 -2.205781,1.775182 -1.308748,1.068736 -2.173768,1.754591 -2.271129,1.800724 -0.192765,0.09135 -0.44389,0.11649 -0.601041,0.06014 z"
       id="path44135-7" /><rect
       style="fill:#1a1a1a;fill-opacity:1;stroke:none;stroke-width:3.00001;stroke-linecap:round;stroke-miterlimit:10;stop-color:#000000"
       id="rect16233"
       width="2.2104352"
       height="17.951567"
       x="24.072386"
       y="15.770548"
       rx="1.0481405"
       ry="1.2722424" /><rect
       style="fill:#1a1a1a;fill-opacity:1;stroke:none;stroke-width:3.00001;stroke-linecap:round;stroke-miterlimit:10;stop-color:#000000"
       id="rect16233-6"
       width="2.2104352"
       height="17.951567"
       x="23.637255"
       y="-34.06773"
       rx="1.0481405"
       ry="1.2722424"
       transform="rotate(90)" /></g></svg>
