<?xml version="1.0" encoding="UTF-8" standalone="no"?>
<!-- Created with Inkscape (http://www.inkscape.org/) -->

<svg
   width="50mm"
   height="50mm"
   viewBox="0 0 50 50"
   version="1.1"
   id="svg43226"
   xml:space="preserve"
   inkscape:version="1.2 (dc2aeda, 2022-05-15)"
   sodipodi:docname="comments_button.svg"
   inkscape:export-filename="comments_button.png"
   inkscape:export-xdpi="96"
   inkscape:export-ydpi="96"
   xmlns:inkscape="http://www.inkscape.org/namespaces/inkscape"
   xmlns:sodipodi="http://sodipodi.sourceforge.net/DTD/sodipodi-0.dtd"
   xmlns="http://www.w3.org/2000/svg"
   xmlns:svg="http://www.w3.org/2000/svg"><sodipodi:namedview
     id="namedview43228"
     pagecolor="#ffffff"
     bordercolor="#000000"
     borderopacity="0.25"
     inkscape:showpageshadow="2"
     inkscape:pageopacity="0.0"
     inkscape:pagecheckerboard="0"
     inkscape:deskcolor="#d1d1d1"
     inkscape:document-units="mm"
     showgrid="false"
     inkscape:zoom="1.8161812"
     inkscape:cx="13.489843"
     inkscape:cy="110.12117"
     inkscape:window-width="1440"
     inkscape:window-height="872"
     inkscape:window-x="0"
     inkscape:window-y="28"
     inkscape:window-maximized="0"
     inkscape:current-layer="layer1" /><defs
     id="defs43223"><filter
       id="mask-powermask-path-effect44280_inverse"
       inkscape:label="filtermask-powermask-path-effect44280"
       style="color-interpolation-filters:sRGB"
       height="100"
       width="100"
       x="-50"
       y="-50"><feColorMatrix
         id="mask-powermask-path-effect44280_primitive1"
         values="1"
         type="saturate"
         result="fbSourceGraphic" /><feColorMatrix
         id="mask-powermask-path-effect44280_primitive2"
         values="-1 0 0 0 1 0 -1 0 0 1 0 0 -1 0 1 0 0 0 1 0 "
         in="fbSourceGraphic" /></filter><filter
       id="mask-powermask-path-effect44310_inverse"
       inkscape:label="filtermask-powermask-path-effect44310"
       style="color-interpolation-filters:sRGB"
       height="100"
       width="100"
       x="-50"
       y="-50"><feColorMatrix
         id="mask-powermask-path-effect44310_primitive1"
         values="1"
         type="saturate"
         result="fbSourceGraphic" /><feColorMatrix
         id="mask-powermask-path-effect44310_primitive2"
         values="-1 0 0 0 1 0 -1 0 0 1 0 0 -1 0 1 0 0 0 1 0 "
         in="fbSourceGraphic" /></filter></defs><g
     inkscape:label="Layer 1"
     inkscape:groupmode="layer"
     id="layer1"><path
       style="fill:#000000;stroke-width:1"
       d="m 3.1809121,-60.363994 c -2.26884801,-0.313769 -4.42777,-1.869381 -5.463912,-3.937026 -0.18095,-0.361092 -0.605438,-1.56554 -0.605438,-1.71788 0,-0.01951 3.17411099,-0.03549 7.053581,-0.03549 h 7.0535849 l -0.133422,0.472059 c -0.21112,0.746962 -0.885556,2.040086 -1.3806779,2.647239 -1.515171,1.858007 -4.155511,2.898605 -6.523716,2.571094 z m -15.4447881,-7.671912 c -0.997508,-0.167793 -1.947199,-0.899218 -2.423328,-1.866373 -0.267452,-0.543274 -0.294936,-0.674869 -0.29453,-1.410321 6.75e-4,-1.220471 0.238077,-1.649885 1.765769,-3.19392 2.026149,-2.047823 3.101478,-3.985022 3.6835641,-6.635912 0.1742,-0.793337 0.197713,-1.270005 0.260359,-5.277996 0.06239,-3.991416 0.08669,-4.487237 0.258376,-5.270507 0.863249,-3.938402 3.245337,-7.195901 6.63664,-9.075595 1.081353,-0.59936 2.13998199,-1.00903 3.381244,-1.30847 0.55428,-0.13372 1.05836,-0.2559 1.120177,-0.27152 0.08251,-0.0208 0.112391,-0.33126 0.112391,-1.16723 0,-1.36959 0.101727,-1.7594 0.585607,-2.24401 0.905781,-0.90716 2.423387,-0.67849 3.006121,0.45295 0.208346,0.40452 0.232556,0.56389 0.260265,1.71317 l 0.03055,1.26715 0.617107,0.10582 c 0.878462,0.15064 2.245465,0.60213 3.188195,1.053 3.3216439,1.588609 5.7987239,4.40951 6.9628339,7.929289 0.609913,1.844125 0.650406,2.24381 0.722426,7.130657 l 0.06428,4.360941 0.275403,1.047473 c 0.692861,2.635238 1.729853,4.394427 3.807303,6.458837 1.125221,1.118156 1.378906,1.517427 1.522785,2.396669 0.1129,0.689964 -0.02402,1.449737 -0.382964,2.124974 -0.471049,0.88613 -1.310178,1.482245 -2.359584,1.676237 -0.62868,0.116218 -32.11121,0.120718 -32.800982,0.0047 z"
       id="path44133" /><path
       style="fill:#000000;stroke-width:1"
       d="m -79.014939,9.4128797 c -0.548417,-0.204436 -0.9353,-0.561171 -1.20563,-1.111687 l -0.254022,-0.517303 V -12.833447 -33.450785 l 0.289416,-0.61103 c 0.346535,-0.731618 1.127687,-1.552677 1.80258,-1.894673 1.045126,-0.529605 0.265759,-0.5038 15.215867,-0.5038 9.824102,0 13.856817,0.02871 14.197656,0.101093 1.041805,0.221222 2.078194,0.96691 2.61359,1.880493 0.548082,0.935232 0.516785,-0.461689 0.491129,21.920698 -0.02229,19.4564417 -0.03115,20.4488867 -0.185183,20.7910777 -0.329559,0.732077 -1.10019,1.29649 -1.775861,1.300648 -0.490226,0.003 -1.162716,-0.235576 -1.610891,-0.571531 -0.222345,-0.16667 -3.092601,-2.596058 -6.37835,-5.398642 -3.285747,-2.80258304 -6.095365,-5.161967 -6.243594,-5.243074 -0.376597,-0.206064 -1.693242,-0.204831 -2.066227,0.002 -0.148228,0.08217 -3.058911,2.51871296 -6.468184,5.414536 -3.837749,3.259769 -6.374316,5.351704 -6.65982,5.49243 -0.565259,0.278616 -1.301653,0.355289 -1.762476,0.183505 z"
       id="path44135" /><path
       style="fill:#000000;stroke-width:1"
       d="m -70.046666,-102.98571 c -0.533209,-0.20487 -1.145407,-0.63524 -1.424898,-1.00168 -0.135013,-0.17703 -1.942354,-3.52692 -4.016303,-7.44423 l -3.770822,-7.12236 4.857705,-4.8627 c 2.671747,-2.67449 4.904762,-4.98932 4.962265,-5.14405 0.340363,-0.91594 -0.266999,-1.93859 -1.263138,-2.12688 -0.747779,-0.14132 -0.808274,-0.0901 -5.945721,5.03411 l -4.864827,4.85231 -0.731945,-0.3842 c -6.749158,-3.54261 -13.599563,-7.21229 -13.869083,-7.42951 -0.18949,-0.15265 -0.50416,-0.56695 -0.69927,-0.92052 -0.33118,-0.60019 -0.3542,-0.69928 -0.34667,-1.49238 0.005,-0.54528 0.0648,-0.97478 0.16628,-1.19931 0.27455,-0.60698 0.75062,-1.17691 1.20605,-1.44381 0.242008,-0.14179 9.070063,-3.13998 19.617881,-6.66255 18.914169,-6.31662 19.186822,-6.40407 19.829096,-6.36002 1.692843,0.11609 2.874124,1.30133 2.975153,2.98514 l 0.04568,0.76169 -6.361689,19.08743 c -4.103926,12.31326 -6.460987,19.24398 -6.641465,19.52856 -0.323665,0.51035 -0.767769,0.90768 -1.351122,1.2088 -0.520717,0.2688 -1.832187,0.34404 -2.373179,0.13612 z"
       id="path44139" /><rect
       style="fill:#ffffff;fill-opacity:1;stroke-width:2.99999;stroke-linecap:round;stroke-miterlimit:10;stop-color:#000000"
       id="rect7857"
       width="45.313538"
       height="45.313538"
       x="2.3390033"
       y="2.3428297"
       rx="22.656769"
       ry="22.524679" /><path
       style="fill:#141414;fill-opacity:1;stroke-width:0.999998"
       d="m -16.572067,12.171173 c -0.252449,-0.097 -0.542296,-0.300762 -0.674623,-0.474252 -0.06393,-0.08382 -0.919613,-1.669832 -1.901531,-3.524493 l -1.785307,-3.372108 2.299896,-2.302259 c 1.264947,-1.266245 2.322175,-2.36220601 2.349399,-2.43546601 0.161143,-0.433654 -0.12641,-0.917831 -0.598038,-1.006978 -0.354037,-0.0669 -0.382678,-0.04267 -2.815017,2.38341801 l -2.303267,2.297337 -0.346543,-0.181896 c -3.19541,-1.67726 -6.438756,-3.41468201 -6.566361,-3.51752401 -0.08971,-0.07227 -0.238695,-0.268426 -0.33107,-0.435825 -0.156798,-0.284162 -0.167697,-0.331079 -0.164134,-0.70657599 0.0023,-0.258163 0.03068,-0.46151 0.07874,-0.567811 0.129984,-0.28738 0.355383,-0.557215 0.571006,-0.683581 0.114586,-0.06712 4.29425,-1.486631 9.288147,-3.154405 8.954972,-2.990622 9.084059,-3.032024 9.388146,-3.011171 0.8014834,0.05496 1.3607654,0.61612 1.4085964,1.413325 l 0.02163,0.360623 -3.0119634,9.037006 c -1.943016,5.829748 -3.058971,9.111122 -3.144421,9.245855 -0.153239,0.241628 -0.363503,0.429747 -0.639692,0.572313 -0.246536,0.127262 -0.867455,0.162882 -1.123589,0.06444 z"
       id="path44139-5" /><rect
       style="fill:#141414;fill-opacity:1;stroke:none;stroke-width:3;stroke-linecap:round;stroke-miterlimit:10;stop-color:#000000"
       id="rect3319"
       width="4.9235382"
       height="5.0773978"
       x="-20.743963"
       y="-7.8890543"
       rx="10.724186"
       ry="10.724186"
       transform="rotate(-28.090473)" /><rect
       style="fill:#141414;fill-opacity:1;stroke:none;stroke-width:3;stroke-linecap:round;stroke-miterlimit:10;stop-color:#000000"
       id="rect3319-8"
       width="4.9235382"
       height="5.0773983"
       x="-19.614464"
       y="-13.659188"
       rx="10.724185"
       ry="10.724185"
       transform="matrix(0.88220518,0.47086519,0.47086519,-0.88220518,0,0)" /><rect
       style="fill:#141414;fill-opacity:1;stroke:none;stroke-width:3;stroke-linecap:round;stroke-miterlimit:10;stop-color:#000000"
       id="rect3319-8-7"
       width="4.9235382"
       height="5.0773983"
       x="-17.406662"
       y="-10.336038"
       rx="10.724185"
       ry="10.724185"
       transform="matrix(0.88220518,0.47086519,0.47086519,-0.88220518,0,0)" /><path
       style="fill:#1a1a1a;fill-opacity:1;stroke-width:1"
       d="m 16.953947,33.945431 c -0.268676,-0.06183 -0.555885,-0.363079 -0.616758,-0.646935 -0.02535,-0.118255 -0.03458,-0.264706 -0.02049,-0.325444 0.01408,-0.06076 0.320244,-0.924993 0.680352,-1.920554 l 0.654741,-1.810106 -0.156532,-0.286617 c -1.306991,-2.393122 -1.542394,-5.190592 -0.654282,-7.775345 0.465961,-1.356129 1.171626,-2.50254 2.182494,-3.545633 1.268592,-1.309043 2.829069,-2.212722 4.584961,-2.655174 2.063178,-0.51988 4.27518,-0.334712 6.229364,0.521474 2.670511,1.170022 4.718873,3.573261 5.450862,6.395212 0.489677,1.887787 0.391737,3.951461 -0.273118,5.754953 -0.348259,0.944707 -1.004291,2.083684 -1.634196,2.83722 -1.976773,2.364747 -4.998509,3.670623 -8.014495,3.46355 -1.385074,-0.09511 -2.416362,-0.372079 -3.677467,-0.987703 L 21.02338,32.63921 19.222654,33.292418 c -0.990401,0.359269 -1.865483,0.662494 -1.944622,0.673838 -0.07914,0.01129 -0.224976,0.0024 -0.324076,-0.02082 z"
       id="path44137"
       clip-path="none" /><path
       style="fill:#ffffff;fill-opacity:1;stroke-width:1"
       d="m 18.95405,31.783035 c -0.208328,-0.04793 -0.431026,-0.281528 -0.478228,-0.501626 -0.01967,-0.09167 -0.02683,-0.205247 -0.01588,-0.252346 0.01091,-0.0471 0.248313,-0.717226 0.527534,-1.489169 l 0.507679,-1.403532 -0.121389,-0.222236 c -1.013421,-1.855595 -1.195947,-4.024716 -0.50732,-6.028894 0.361299,-1.051528 0.908464,-1.940438 1.692276,-2.749238 0.98365,-1.015014 2.193621,-1.715713 3.555115,-2.058784 1.599759,-0.403107 3.314914,-0.25953 4.830164,0.404345 2.070676,0.907219 3.658948,2.770656 4.22652,4.958757 0.379689,1.463765 0.303749,3.063907 -0.211771,4.462312 -0.270033,0.732513 -0.778712,1.615655 -1.267133,2.199942 -1.53276,1.833588 -3.875774,2.846147 -6.214327,2.685588 -1.073967,-0.07374 -1.873614,-0.288507 -2.851457,-0.765851 l -0.516407,-0.252094 -1.396261,0.506486 c -0.767941,0.278575 -1.446468,0.513692 -1.507832,0.522486 -0.06136,0.0087 -0.174444,0.0019 -0.251283,-0.01615 z"
       id="path44137-9"
       clip-path="none" /><rect
       style="fill:#ffffff;fill-opacity:1;stroke:none;stroke-width:3;stroke-linecap:round;stroke-miterlimit:10;stop-color:#000000"
       id="rect2954"
       width="6.3667917"
       height="0.99626559"
       x="-19.826763"
       y="-12.611398"
       rx="0.75978702"
       ry="26.881752"
       transform="rotate(-45)" /></g></svg>
