<?xml version="1.0" encoding="UTF-8" standalone="no"?>
<!-- Created with Inkscape (http://www.inkscape.org/) -->

<svg
   width="50mm"
   height="50mm"
   viewBox="0 0 50 50"
   version="1.1"
   id="svg5"
   xml:space="preserve"
   inkscape:version="1.2 (dc2aeda, 2022-05-15)"
   sodipodi:docname="followers.svg"
   inkscape:export-filename="followers.png"
   inkscape:export-xdpi="96"
   inkscape:export-ydpi="96"
   xmlns:inkscape="http://www.inkscape.org/namespaces/inkscape"
   xmlns:sodipodi="http://sodipodi.sourceforge.net/DTD/sodipodi-0.dtd"
   xmlns="http://www.w3.org/2000/svg"
   xmlns:svg="http://www.w3.org/2000/svg"><sodipodi:namedview
     id="namedview7"
     pagecolor="#ffffff"
     bordercolor="#000000"
     borderopacity="0.25"
     inkscape:showpageshadow="2"
     inkscape:pageopacity="0.0"
     inkscape:pagecheckerboard="0"
     inkscape:deskcolor="#d1d1d1"
     inkscape:document-units="mm"
     showgrid="false"
     inkscape:zoom="2.3187896"
     inkscape:cx="69.864035"
     inkscape:cy="64.688922"
     inkscape:window-width="1440"
     inkscape:window-height="900"
     inkscape:window-x="0"
     inkscape:window-y="0"
     inkscape:window-maximized="0"
     inkscape:current-layer="layer1" /><defs
     id="defs2" /><g
     inkscape:label="Layer 1"
     inkscape:groupmode="layer"
     id="layer1"><path
       style="fill:#999999;stroke-width:1"
       d="m 19.841652,40.520698 c -0.215811,-0.05857 -0.460308,-0.157901 -0.543329,-0.220731 -0.653935,-0.494883 -0.982399,-0.974651 -1.078431,-1.575196 l -0.05423,-0.339136 -4.238589,-0.02379 -4.2385882,-0.02379 -0.4075809,-0.252058 C 8.982484,37.901449 8.8086847,37.71116 8.6319671,37.375494 l -0.2413588,-0.458449 0.038539,-1.964341 c 0.042352,-2.158759 0.1173292,-2.604613 0.6553641,-3.897031 0.7971942,-1.914945 2.6139826,-3.700392 4.5697556,-4.490922 1.084306,-0.438281 1.890367,-0.589564 3.152622,-0.591691 1.591284,-0.0026 2.758029,0.270129 4.01991,0.939947 l 0.592759,0.314643 0.570102,-0.529597 c 1.467149,-1.362912 3.387809,-2.324585 5.571791,-2.78979 1.233814,-0.262811 3.256992,-0.26178 4.500428,0.0023 3.039042,0.828093 4.260085,1.150413 6.149453,3.160414 2.610044,2.253717 3.338533,9.824178 3.201619,11.355388 -0.06328,0.707734 -0.271862,1.149373 -0.74454,1.57641 -0.708439,0.640033 0.165388,0.590337 -10.696212,0.608315 -7.668417,0.0127 -9.821515,-0.0065 -10.130501,-0.09038 z m 19.851293,-1.473441 c 0.366454,-0.288252 0.482022,-0.727781 0.430674,-3.014642 -0.03879,-1.727561 -0.378436,-3.069645 -0.763439,-4.465265 -1.275726,-4.624457 -5.283158,-6.478145 -9.558986,-6.478145 -2.756934,0 -5.26359,1.020226 -7.188114,2.925613 -1.502371,1.487432 -2.422597,3.163575 -2.845275,5.182518 -0.153964,0.735416 -0.188986,1.221984 -0.216056,3.001758 -0.03478,2.287158 3.36e-4,2.561128 0.365255,2.848163 0.211945,0.166716 0.315748,0.168484 9.887971,0.168484 9.572222,0 9.676025,-0.0017 9.88797,-0.168484 z M 18.210157,35.266163 c 0.03853,-1.397048 0.08287,-1.845967 0.253915,-2.570361 0.329216,-1.394267 0.83153,-2.572707 1.613372,-3.785008 0.20106,-0.311758 0.365564,-0.58632 0.365564,-0.610141 0,-0.08602 -1.224437,-0.619102 -1.755369,-0.764233 -0.417598,-0.114151 -0.852819,-0.147938 -1.880752,-0.146016 -1.269901,0.0024 -1.376111,0.01554 -2.1037,0.260599 -1.880323,0.633329 -3.337368,1.883983 -4.172979,3.581872 -0.6010059,1.221193 -0.7144615,1.80626 -0.7308096,3.768636 -0.010975,1.315664 0.010859,1.708915 0.1007386,1.818061 0.104193,0.12649 0.488516,0.139268 4.189034,0.139268 h 4.074311 z m 20.416928,-7.044156 c -0.519295,-2.353587 2.796453,4.001822 2.771765,6.793404 l 0.01636,3.380483 c -0.08257,-1.986848 -0.723443,-3.955333 -0.750983,-0.94102 z M 15.851634,24.625035 C 14.603133,24.35428 13.46027,23.58142 12.759869,22.534234 c -0.590882,-0.883442 -0.801144,-1.594982 -0.801144,-2.711136 0,-1.116153 0.210262,-1.827694 0.801144,-2.711135 1.234749,-1.846104 3.621559,-2.654131 5.702404,-1.930484 0.834631,0.290255 1.426944,0.678141 2.035641,1.333075 0.868011,0.933942 1.315847,2.059972 1.315847,3.308544 0,1.335443 -0.47621,2.466824 -1.445712,3.434735 -1.237835,1.235804 -2.859146,1.726605 -4.516415,1.367202 z m 2.524539,-1.603819 c 0.743246,-0.348619 1.403153,-1.00754 1.756837,-1.754216 0.2489,-0.525464 0.268203,-0.629386 0.268203,-1.443902 0,-0.814514 -0.0193,-0.918436 -0.268203,-1.443901 -0.353918,-0.747169 -1.013695,-1.405788 -1.756837,-1.753755 -1.07744,-0.504498 -2.525267,-0.392972 -3.486814,0.26859 -1.825003,1.255634 -2.130121,3.700652 -0.658679,5.27823 0.80993,0.868351 1.559603,1.174715 2.78518,1.138196 0.689195,-0.02054 0.868892,-0.05874 1.360313,-0.289242 z m 19.529401,-2.445817 c -22.075469,-13.7169327 -11.037734,-6.858466 0,0 z m 1.303229,-1.090991 c -22.944288,-12.9896053 -11.472144,-6.494803 0,0 z M 27.966017,22.66079 c -2.118564,-0.548472 -3.742253,-2.075352 -4.484279,-4.216915 -0.209336,-0.604162 -0.23203,-0.781675 -0.2351,-1.838958 -0.0029,-0.999183 0.02521,-1.261886 0.192355,-1.797163 0.561237,-1.797401 1.728176,-3.14662 3.407564,-3.939828 0.942648,-0.44523 1.646274,-0.597423 2.749445,-0.594697 1.955717,0.0049 3.677386,0.817185 4.917011,2.32004 1.526434,1.850567 1.846013,4.587785 0.781993,6.697834 -0.872607,1.73046 -2.485243,3.010491 -4.294493,3.408758 -0.840986,0.185127 -2.237975,0.167137 -3.034496,-0.03907 z m 3.115805,-1.406329 c 1.848448,-0.650865 3.092242,-2.070987 3.409507,-3.892857 0.364154,-2.091126 -0.785937,-4.294996 -2.729386,-5.230203 -1.87917,-0.904276 -4.09123,-0.565541 -5.599452,0.857449 -1.063582,1.003478 -1.574754,2.163701 -1.574754,3.574273 0,2.243538 1.502314,4.164319 3.729497,4.768346 0.783785,0.212568 2.041709,0.177528 2.764588,-0.077 z"
       id="path302"
       sodipodi:nodetypes="scscccsscssscscsscccsssscssssssssccssssccsccsccscccsssssssssscssssssscccsscscscssssscsssssccs" /></g></svg>
