<?xml version="1.0" encoding="UTF-8" standalone="no"?>
<svg
   width="100"
   height="100"
   viewBox="0 0 100 100"
   fill="none"
   stroke="currentColor"
   stroke-width="2"
   stroke-linecap="round"
   stroke-linejoin="round"
   class="feather feather-message-circle"
   version="1.1"
   id="svg254"
   sodipodi:docname="message-circle.svg"
   inkscape:export-filename="action.png"
   inkscape:export-xdpi="96"
   inkscape:export-ydpi="96"
   inkscape:version="1.2 (dc2aeda, 2022-05-15)"
   xml:space="preserve"
   xmlns:inkscape="http://www.inkscape.org/namespaces/inkscape"
   xmlns:sodipodi="http://sodipodi.sourceforge.net/DTD/sodipodi-0.dtd"
   xmlns="http://www.w3.org/2000/svg"
   xmlns:svg="http://www.w3.org/2000/svg"><defs
     id="defs258" /><sodipodi:namedview
     id="namedview256"
     pagecolor="#ffffff"
     bordercolor="#000000"
     borderopacity="0.25"
     inkscape:showpageshadow="2"
     inkscape:pageopacity="0.0"
     inkscape:pagecheckerboard="0"
     inkscape:deskcolor="#d1d1d1"
     showgrid="false"
     inkscape:zoom="2.5122416"
     inkscape:cx="36.421656"
     inkscape:cy="8.9561449"
     inkscape:window-width="1440"
     inkscape:window-height="847"
     inkscape:window-x="0"
     inkscape:window-y="25"
     inkscape:window-maximized="0"
     inkscape:current-layer="svg254" /><path
     d="m -37.029058,-50.980612 a 34.092459,34.092459 0 0 1 -3.66148,15.459587 34.580656,34.580656 0 0 1 -30.919176,19.12107 34.092459,34.092459 0 0 1 -15.459587,-3.661484 l -23.189379,7.729796 7.72979,-23.189382 a 34.092459,34.092459 0 0 1 -3.66148,-15.459587 34.580656,34.580656 0 0 1 19.121069,-30.919176 34.092459,34.092459 0 0 1 15.459587,-3.66148 h 2.034156 a 34.499289,34.499289 0 0 1 32.5465,32.5465 z"
     id="path252"
     style="fill:none;fill-opacity:1;stroke:#ffffff;stroke-width:8;stroke-dasharray:none;stroke-opacity:1" /><polygon
     points="12,2 15.09,8.26 22,9.27 17,14.14 18.18,21.02 12,17.77 5.82,21.02 7,14.14 2,9.27 8.91,8.26 "
     id="polygon2970"
     transform="matrix(4.0372548,0,0,4.0503639,7.7721687,-113.53523)"
     style="fill:none;stroke:#2774e9;stroke-width:2.47292;stroke-dasharray:none;stroke-opacity:1" /><path
     style="fill:#000000;stroke-width:0.25;stroke-dasharray:none"
     d="m 21.532048,95.521736 c -3.46994,-2.118491 -5.445057,-6.516636 -4.669662,-10.39826 0.31549,-1.579366 2.656607,-6.571065 5.202481,-11.092656 2.545875,-4.521602 4.628856,-8.436716 4.628856,-8.700254 0,-0.263538 -0.872418,-0.479165 -1.938706,-0.479165 -5.082617,0 -10.878049,-6.907918 -9.708726,-11.572431 1.307577,-5.216059 21.064618,-45.5515091 23.252717,-47.4721481 2.300681,-2.0194534 2.975001,-2.083926 21.795221,-2.083926 20.969214,0 23.118412,0.4124136 26.129965,5.0141114 0.838754,1.2816327 1.524998,3.9958127 1.524998,6.0315317 0,3.030974 -0.782129,4.662697 -4.318592,9.009711 -3.981436,4.893986 -4.184696,5.384866 -2.60359,6.287817 5.229901,2.986749 7.63531,8.379867 5.926488,13.287662 C 86.191446,44.967975 77.701914,53.706314 65.338514,65.396344 31.700466,97.202335 31.62237,97.268548 27.754479,97.264575 25.899076,97.262722 23.09898,96.478397 21.532048,95.521736 Z M 55.833834,59.780662 C 66.51854,49.714066 75.399336,41.110229 75.568931,40.661027 c 0.169606,-0.449211 -1.879056,-0.816742 -4.552573,-0.816742 -5.454002,0 -8.244403,-1.75411 -8.244403,-5.182641 0,-1.223765 2.439489,-5.105814 5.781768,-9.200748 3.179972,-3.896062 6.310295,-7.816011 6.956281,-8.710978 1.103393,-1.528694 0.2351,-1.66102 -14.338785,-2.185279 -11.500232,-0.413683 -15.805374,-0.269429 -16.642389,0.557667 -0.974149,0.962617 -18.76019,38.078521 -18.76019,39.14877 0,0.215737 2.676135,0.392242 5.94696,0.392242 10.96126,0 11.308842,2.764805 2.378786,18.921884 -3.561569,6.443917 -6.475581,11.996524 -6.475581,12.339123 0,0.342588 1.977366,-1.28143 4.394144,-3.608935 2.41678,-2.327505 13.136178,-12.46814 23.820885,-22.534728 z"
     id="path2269" /></svg>
