<?xml version="1.0" encoding="UTF-8" standalone="no"?>
<!-- Created with Inkscape (http://www.inkscape.org/) -->

<svg
   width="50mm"
   height="50mm"
   viewBox="0 0 50 50"
   version="1.1"
   id="svg43226"
   xml:space="preserve"
   inkscape:version="1.2 (dc2aeda, 2022-05-15)"
   sodipodi:docname="share_button.svg"
   inkscape:export-filename="share_button.png"
   inkscape:export-xdpi="96"
   inkscape:export-ydpi="96"
   xmlns:inkscape="http://www.inkscape.org/namespaces/inkscape"
   xmlns:sodipodi="http://sodipodi.sourceforge.net/DTD/sodipodi-0.dtd"
   xmlns="http://www.w3.org/2000/svg"
   xmlns:svg="http://www.w3.org/2000/svg"><sodipodi:namedview
     id="namedview43228"
     pagecolor="#ffffff"
     bordercolor="#000000"
     borderopacity="0.25"
     inkscape:showpageshadow="2"
     inkscape:pageopacity="0.0"
     inkscape:pagecheckerboard="0"
     inkscape:deskcolor="#d1d1d1"
     inkscape:document-units="mm"
     showgrid="false"
     inkscape:zoom="1.7396642"
     inkscape:cx="64.667653"
     inkscape:cy="47.135534"
     inkscape:window-width="1440"
     inkscape:window-height="872"
     inkscape:window-x="0"
     inkscape:window-y="28"
     inkscape:window-maximized="0"
     inkscape:current-layer="layer1" /><defs
     id="defs43223"><filter
       id="mask-powermask-path-effect44280_inverse"
       inkscape:label="filtermask-powermask-path-effect44280"
       style="color-interpolation-filters:sRGB"
       height="100"
       width="100"
       x="-50"
       y="-50"><feColorMatrix
         id="mask-powermask-path-effect44280_primitive1"
         values="1"
         type="saturate"
         result="fbSourceGraphic" /><feColorMatrix
         id="mask-powermask-path-effect44280_primitive2"
         values="-1 0 0 0 1 0 -1 0 0 1 0 0 -1 0 1 0 0 0 1 0 "
         in="fbSourceGraphic" /></filter><filter
       id="mask-powermask-path-effect44310_inverse"
       inkscape:label="filtermask-powermask-path-effect44310"
       style="color-interpolation-filters:sRGB"
       height="100"
       width="100"
       x="-50"
       y="-50"><feColorMatrix
         id="mask-powermask-path-effect44310_primitive1"
         values="1"
         type="saturate"
         result="fbSourceGraphic" /><feColorMatrix
         id="mask-powermask-path-effect44310_primitive2"
         values="-1 0 0 0 1 0 -1 0 0 1 0 0 -1 0 1 0 0 0 1 0 "
         in="fbSourceGraphic" /></filter><clipPath
       clipPathUnits="userSpaceOnUse"
       id="clipPath1877"><rect
         style="fill:none;stroke:#000000;stroke-width:3;stroke-linecap:round;stroke-miterlimit:10;stroke-opacity:1;stop-color:#000000"
         id="rect1879"
         width="70.342186"
         height="70.342186"
         x="95.401588"
         y="-27.257599"
         ry="39.127842"
         rx="39.127842" /></clipPath></defs><g
     inkscape:label="Layer 1"
     inkscape:groupmode="layer"
     id="layer1"><rect
       style="fill:#ffffff;fill-opacity:1;stroke-width:2.99999;stroke-linecap:round;stroke-miterlimit:10;stop-color:#000000"
       id="rect7857"
       width="45.313538"
       height="45.313538"
       x="2.1785374"
       y="2.6142421"
       rx="22.656769"
       ry="22.524679" /><path
       style="fill:#000000;stroke-width:1"
       d="m -77.329571,57.895385 c -2.398917,-0.331757 -4.681606,-1.976549 -5.777148,-4.162729 -0.191324,-0.381792 -0.640147,-1.655289 -0.640147,-1.816363 0,-0.02063 3.356077,-0.03753 7.457951,-0.03753 h 7.457954 l -0.141071,0.499122 c -0.223223,0.789784 -0.936323,2.15704 -1.459829,2.799 -1.602034,1.964524 -4.39374,3.064777 -6.89771,2.718491 z m -16.33021,-8.111729 c -1.054693,-0.177413 -2.058828,-0.950769 -2.562253,-1.973369 -0.282785,-0.574419 -0.311844,-0.713558 -0.311415,-1.491172 7.14e-4,-1.290439 0.251726,-1.74447 1.866997,-3.377022 2.142305,-2.165221 3.279281,-4.213477 3.894736,-7.016337 0.184187,-0.838818 0.209048,-1.342813 0.275285,-5.580575 0.06597,-4.220237 0.09166,-4.744482 0.273188,-5.572656 0.912738,-4.164183 3.431387,-7.608429 7.017107,-9.595882 1.143346,-0.633722 2.262664,-1.066873 3.575085,-1.383485 0.586056,-0.141381 1.119034,-0.27057 1.184395,-0.287088 0.08724,-0.02204 0.118834,-0.35025 0.118834,-1.234141 0,-1.448103 0.107559,-1.860261 0.619179,-2.372657 0.957708,-0.959164 2.562316,-0.717388 3.178457,0.478916 0.22029,0.427718 0.245888,0.596217 0.275185,1.811382 l 0.0323,1.339796 0.652484,0.111886 c 0.928823,0.159275 2.374194,0.636656 3.370969,1.113372 3.512068,1.679678 6.131155,4.662296 7.362001,8.383858 0.644878,1.949845 0.687693,2.372443 0.763841,7.539445 l 0.06796,4.610946 0.291192,1.107523 c 0.732581,2.786311 1.829022,4.646351 4.025569,6.82911 1.189727,1.182258 1.457956,1.604419 1.610083,2.534066 0.119373,0.729519 -0.0254,1.532848 -0.404919,2.246795 -0.498053,0.936931 -1.385288,1.56722 -2.494854,1.772333 -0.664721,0.122881 -33.952089,0.127639 -34.681405,0.005 z"
       id="path44133" /><path
       style="fill:#000000;stroke-width:0.999998"
       d="m -93.689437,-7.298011 c -0.569385,-0.212252 -0.97106,-0.582627 -1.251726,-1.1541913 l -0.263734,-0.537081 V -30.394909 -51.800536 l 0.300482,-0.634392 c 0.359784,-0.759591 1.170802,-1.612043 1.8715,-1.967115 1.085085,-0.549854 0.275919,-0.523062 15.797634,-0.523062 10.199719,0 14.386622,0.02981 14.740492,0.104958 1.081639,0.22968 2.157653,1.003879 2.71352,1.952392 0.569037,0.97099 0.536543,-0.479341 0.509907,22.75882 -0.02315,20.2003447 -0.03234,21.2307347 -0.192264,21.5860087 -0.34216,0.7600683 -1.142255,1.3460613 -1.84376,1.3503783 -0.508969,0.0031 -1.207172,-0.244583 -1.672482,-0.593383 -0.230846,-0.173042 -3.210844,-2.695317 -6.622222,-5.605055 -3.411375,-2.909738 -6.328416,-5.359331 -6.482313,-5.443539 -0.390996,-0.213943 -1.757981,-0.212662 -2.145227,0.002 -0.153896,0.08531 -3.175866,2.615014 -6.71549,5.621557 -3.984483,3.3844037 -6.618033,5.556323 -6.914453,5.702429 -0.586872,0.289269 -1.351421,0.368874 -1.829864,0.190522 z"
       id="path44135" /><path
       style="fill:#000000;stroke-width:1"
       d="m -94.638776,117.49553 c -0.577189,-0.1328 -1.194191,-0.77999 -1.324968,-1.38979 -0.05448,-0.25404 -0.0743,-0.56866 -0.04403,-0.69915 0.03026,-0.1305 0.687974,-1.98713 1.461581,-4.12587 l 1.40656,-3.8886 -0.33627,-0.61573 c -2.807776,-5.14108 -3.313484,-11.150805 -1.405578,-16.703555 1.001013,-2.91334 2.516973,-5.37614 4.688586,-7.61699 2.725289,-2.81218 6.077617,-4.75353 9.849752,-5.70404 4.432265,-1.11684 9.184245,-0.71905 13.382371,1.12027 5.736985,2.51353 10.137424,7.67634 11.709932,13.73866 1.051959,4.05548 0.841562,8.488815 -0.586729,12.363205 -0.748155,2.02949 -2.157492,4.47632 -3.510702,6.09512 -4.246645,5.08012 -10.738159,7.8855 -17.217312,7.44065 -2.975516,-0.2043 -5.191007,-0.79933 -7.900202,-2.12186 l -1.430754,-0.69844 -3.868454,1.40327 c -2.127649,0.77181 -4.007558,1.42322 -4.177574,1.44759 -0.170017,0.0243 -0.483308,0.005 -0.696203,-0.0447 z"
       id="path44137"
       clip-path="none" /><path
       style="fill:#1a1a1a;fill-opacity:1;stroke-width:0.999996"
       d="m 26.389053,36.14841 c -0.245864,-0.09447 -0.528151,-0.292915 -0.657026,-0.461881 -0.06226,-0.08163 -0.895629,-1.626279 -1.851937,-3.432567 l -1.738742,-3.284156 2.23991,-2.24221 c 1.231955,-1.233219 2.261608,-2.300594 2.288122,-2.371944 0.156942,-0.422342 -0.123105,-0.893892 -0.582439,-0.980714 -0.344803,-0.06516 -0.372698,-0.04156 -2.741595,2.321255 l -2.243193,2.237417 -0.337504,-0.177154 c -3.112068,-1.633512 -6.27082,-3.325618 -6.395096,-3.425778 -0.08737,-0.07039 -0.232469,-0.261424 -0.322435,-0.424459 -0.152709,-0.27675 -0.163322,-0.322443 -0.159853,-0.688146 0.0022,-0.251429 0.02988,-0.449472 0.07668,-0.553001 0.126594,-0.279884 0.346113,-0.542681 0.556114,-0.665751 0.111593,-0.06537 4.182245,-1.447857 9.045892,-3.072131 8.721405,-2.91262 8.847126,-2.952943 9.14328,-2.932634 0.780579,0.05353 1.325275,0.60005 1.371858,1.376462 l 0.02107,0.351218 -2.933405,8.801301 c -1.892338,5.677695 -2.979186,8.873483 -3.062409,9.004702 -0.14924,0.235325 -0.35402,0.418538 -0.623006,0.557385 -0.240106,0.123951 -0.84483,0.158635 -1.094284,0.06275 z"
       id="path44139" /><g
       id="g44266"
       clip-path="none"
       transform="translate(-58.26052,-23.427521)"><g
         id="g44260"><rect
           style="fill:#f4f4f4;stroke-width:2.99999;stroke-linecap:round;stroke-miterlimit:10;stop-color:#000000"
           id="rect44197"
           width="5.0738888"
           height="5.0738888"
           x="-19.593067"
           y="117.21311"
           rx="18.021118"
           ry="18.021118" /><rect
           style="fill:#f4f4f4;stroke-width:2.99999;stroke-linecap:round;stroke-miterlimit:10;stop-color:#000000"
           id="rect44197-3"
           width="5.0738888"
           height="5.0738888"
           x="-12.96416"
           y="117.20085"
           rx="18.021118"
           ry="18.021118" /><rect
           style="fill:#f4f4f4;stroke-width:2.99999;stroke-linecap:round;stroke-miterlimit:10;stop-color:#000000"
           id="rect44197-3-9"
           width="5.0738888"
           height="5.0738888"
           x="-26.22607"
           y="117.21163"
           rx="18.021118"
           ry="18.021118" /></g></g><rect
       style="fill:#ffffff;fill-opacity:1;stroke:none;stroke-width:2.99999;stroke-linecap:round;stroke-miterlimit:10;stop-color:#000000"
       id="rect3319-8-7"
       width="4.7951217"
       height="4.9449682"
       x="32.006065"
       y="-11.473982"
       rx="10.724185"
       ry="10.724185"
       transform="matrix(0.88220519,0.47086517,0.47086517,-0.88220519,0,0)" /><path
       style="fill:#ffffff;fill-opacity:1;stroke-width:1"
       d="m 26.235814,32.441392 c -0.16621,-0.06413 -0.357044,-0.198831 -0.444169,-0.313524 -0.0421,-0.0554 -0.605469,-1.103907 -1.251959,-2.330004 l -1.175442,-2.229266 1.514244,-1.522 c 0.832836,-0.837099 1.528911,-1.561628 1.546837,-1.61006 0.106098,-0.286684 -0.08325,-0.606765 -0.393748,-0.665701 -0.233094,-0.04423 -0.251953,-0.02821 -1.853396,1.575652 l -1.516462,1.518745 -0.228164,-0.120259 c -2.103845,-1.108819 -4.239252,-2.257409 -4.323271,-2.325398 -0.05905,-0.04779 -0.157155,-0.177452 -0.217972,-0.288119 -0.103251,-0.187857 -0.110399,-0.218872 -0.108062,-0.467109 0.0014,-0.170671 0.0202,-0.305102 0.05183,-0.375373 0.08556,-0.189986 0.233983,-0.368372 0.375949,-0.451911 0.07544,-0.04438 2.827317,-0.982794 6.115282,-2.085343 5.895923,-1.977069 5.980913,-2.004441 6.181123,-1.990653 0.527693,0.03634 0.895923,0.407311 0.927413,0.934335 l 0.01425,0.238403 -1.983064,5.974267 c -1.279275,3.853989 -2.014013,6.023269 -2.070276,6.112339 -0.100889,0.159739 -0.23933,0.284103 -0.42117,0.378351 -0.162321,0.08414 -0.571131,0.107689 -0.739769,0.04262 z"
       id="path44139-3" /><rect
       style="fill:#e5effb;fill-opacity:1;stroke-width:2.99999;stroke-linecap:round;stroke-miterlimit:10;stop-color:#000000"
       id="rect7857-6"
       width="45.313538"
       height="45.313538"
       x="-46.202057"
       y="-32.704758"
       rx="22.656769"
       ry="22.524679" /><path
       style="fill:#0967e8;fill-opacity:1;stroke-width:0.999997"
       d="m -32.402967,-0.23060689 c -0.293033,-0.06743 -0.60628,-0.395995 -0.672673,-0.705585 -0.02766,-0.12896701 -0.03773,-0.28870401 -0.02235,-0.35495101 0.01536,-0.06625 0.349278,-1.00885 0.742032,-2.094667 l 0.714099,-1.974208 -0.170723,-0.312601 c -1.425481,-2.610079 -1.682225,-5.6611641 -0.713599,-8.4802451 0.508205,-1.479077 1.277844,-2.729419 2.380355,-3.867077 1.383603,-1.427719 3.08555,-2.413325 5.000629,-2.895889 2.250222,-0.56701 4.662761,-0.365055 6.79411,0.56875 2.912616,1.276097 5.146679,3.897209 5.945027,6.974994 0.534071,2.058932 0.427254,4.3096951 -0.297877,6.2766901 -0.379831,1.030353 -1.095339,2.272585 -1.782351,3.094437 -2.155983,2.579131 -5.451667,4.00339601 -8.741076,3.77755101 -1.510643,-0.103723 -2.635427,-0.405812 -4.010861,-1.07724701 l -0.72638,-0.354594 -1.963979,0.71242601 c -1.080189,0.391841 -2.034604,0.722557 -2.120918,0.734929 -0.08632,0.01234 -0.245372,0.0027 -0.353455,-0.02269 z"
       id="path44137-0"
       clip-path="none" /><path
       style="fill:#e5effb;fill-opacity:1;stroke-width:0.999992"
       d="m -30.793168,-1.9768669 c -0.244318,-0.05622 -0.50549,-0.330163 -0.560845,-0.588285 -0.02306,-0.107526 -0.03146,-0.240708 -0.01863,-0.295942 0.0128,-0.05524 0.291212,-0.841132 0.618672,-1.746437 l 0.595383,-1.646006 -0.142342,-0.260631 c -1.188501,-2.176166 -1.402562,-4.7200221 -0.594966,-7.0704431 0.423718,-1.233187 1.065408,-2.275665 1.984632,-3.224193 1.153585,-1.190367 2.572591,-2.012119 4.169296,-2.414459 1.876133,-0.472748 3.887598,-0.304367 5.66462,0.474198 2.428406,1.063951 4.291067,3.249314 4.956692,5.815431 0.445285,1.716644 0.356225,3.5932281 -0.248356,5.2332191 -0.316685,0.859061 -0.913244,1.894777 -1.486043,2.58 -1.79756,2.150362 -4.545352,3.337849 -7.287911,3.14955 -1.259505,-0.08648 -2.197299,-0.338347 -3.344073,-0.898159 l -0.605623,-0.295645 -1.637476,0.593989 c -0.900612,0.326699 -1.69636,0.602435 -1.768325,0.61275 -0.07197,0.01029 -0.20458,0.0023 -0.294695,-0.01892 z"
       id="path44137-9"
       clip-path="none" /><rect
       style="fill:#e5effb;fill-opacity:1;stroke-width:2.99999;stroke-linecap:round;stroke-miterlimit:10;stop-color:#000000"
       id="rect7857-8"
       width="45.313538"
       height="45.313538"
       x="49.678799"
       y="-36.02866"
       rx="22.656769"
       ry="22.524679" /><path
       style="fill:#1a1a1a;fill-opacity:1;stroke-width:0.999999"
       d="m 66.197405,-6.4596703 c -0.211841,-0.04875 -0.438295,-0.286274 -0.486291,-0.510084 -0.01999,-0.09324 -0.02727,-0.208711 -0.01616,-0.256601 0.0111,-0.0479 0.252501,-0.729323 0.536433,-1.514287 l 0.516239,-1.4272017 -0.123419,-0.225987 c -1.030515,-1.886889 -1.216122,-4.092591 -0.515878,-6.130574 0.367393,-1.069259 0.923784,-1.973162 1.720816,-2.795602 1.000239,-1.032132 2.230618,-1.744651 3.615074,-2.093508 1.626741,-0.409906 3.370823,-0.263908 4.911626,0.411163 2.1056,0.92252 3.720658,2.817386 4.297804,5.042391 0.386093,1.488451 0.308871,3.115582 -0.215343,4.53757 -0.274589,0.744867 -0.791846,1.6429077 -1.288504,2.2370437 -1.558612,1.864516 -3.941141,2.894152 -6.319135,2.730882 -1.09208,-0.07499 -1.905213,-0.293371 -2.899548,-0.778768 l -0.525118,-0.256344 -1.419807,0.51503 c -0.780895,0.283271 -1.470865,0.522353 -1.533263,0.531297 -0.0624,0.0089 -0.177385,0.0019 -0.255522,-0.01641 z"
       id="path44137-7"
       clip-path="none" /><path
       style="fill:#e5effb;fill-opacity:1;stroke-width:0.999997"
       d="m 67.774413,-8.1646403 c -0.164259,-0.03779 -0.339848,-0.221974 -0.377065,-0.395513 -0.01551,-0.07228 -0.02116,-0.16183 -0.01252,-0.198966 0.0086,-0.03713 0.195786,-0.565506 0.415942,-1.174155 l 0.400285,-1.1066337 -0.09571,-0.175225 c -0.799046,-1.463069 -0.942961,-3.173341 -0.400004,-4.753562 0.284872,-0.829091 0.716291,-1.529964 1.334298,-2.167673 0.775572,-0.800302 1.72959,-1.352777 2.803078,-1.623276 1.261352,-0.317835 2.613689,-0.20463 3.808408,0.318811 1.632652,0.715309 2.884946,2.184561 3.332456,3.909798 0.299371,1.154125 0.239495,2.415779 -0.166974,3.51837 -0.212911,0.57756 -0.613986,1.273885 -0.999088,1.734573 -1.208525,1.4457177 -3.055906,2.2440827 -4.899769,2.1174877 -0.846784,-0.05814 -1.477276,-0.227477 -2.248269,-0.603845 l -0.407169,-0.198767 -1.1009,0.399346 c -0.605493,0.219646 -1.140487,0.405027 -1.18887,0.411961 -0.04838,0.0069 -0.137543,0.0015 -0.198128,-0.01273 z"
       id="path44137-9-8"
       clip-path="none" /><path
       style="fill:#1a1a1a;fill-opacity:1;stroke-width:2.99999;stroke-linecap:round;stroke-miterlimit:10;stop-color:#000000"
       d="m 21.084769,27.932526 1.065979,1.058094 1.272184,-1.293469 -1.114584,-1.002203 z"
       id="path20761" /></g></svg>
