<?xml version="1.0" encoding="UTF-8" standalone="no"?>
<svg
   width="100"
   height="100"
   viewBox="0 0 100 100"
   fill="none"
   stroke="currentColor"
   stroke-width="2"
   stroke-linecap="round"
   stroke-linejoin="round"
   class="feather feather-star"
   version="1.1"
   id="svg2972"
   sodipodi:docname="star.svg"
   inkscape:export-filename="star.png"
   inkscape:export-xdpi="96"
   inkscape:export-ydpi="96"
   inkscape:version="1.2 (dc2aeda, 2022-05-15)"
   xmlns:inkscape="http://www.inkscape.org/namespaces/inkscape"
   xmlns:sodipodi="http://sodipodi.sourceforge.net/DTD/sodipodi-0.dtd"
   xmlns="http://www.w3.org/2000/svg"
   xmlns:svg="http://www.w3.org/2000/svg">
  <defs
     id="defs2976" />
  <sodipodi:namedview
     id="namedview2974"
     pagecolor="#ffffff"
     bordercolor="#000000"
     borderopacity="0.25"
     inkscape:showpageshadow="2"
     inkscape:pageopacity="0.0"
     inkscape:pagecheckerboard="0"
     inkscape:deskcolor="#d1d1d1"
     showgrid="false"
     inkscape:zoom="0.83170012"
     inkscape:cx="-43.88601"
     inkscape:cy="16.231812"
     inkscape:window-width="1440"
     inkscape:window-height="847"
     inkscape:window-x="0"
     inkscape:window-y="25"
     inkscape:window-maximized="0"
     inkscape:current-layer="svg2972" />
  <polygon
     points="7,14.14 2,9.27 8.91,8.26 12,2 15.09,8.26 22,9.27 17,14.14 18.18,21.02 12,17.77 5.82,21.02 "
     id="polygon2970"
     transform="matrix(3.9565843,0,0,3.969006,15.682153,-45.522292)"
     style="fill:none;stroke:#2774e9;stroke-width:2.86126;stroke-dasharray:none;stroke-opacity:1" />
  <path
     style="fill:#000000;stroke-width:1.99999"
     d="m 169.80781,51.391518 c -1.01432,-2.222031 -2.93331,-6.54768 -4.26442,-9.612552 -3.85701,-8.880714 -5.55628,-10.281862 -20.29709,-16.73607 -6.74858,-2.954843 -7.52541,-3.412634 -7.52541,-4.434792 0,-0.382133 3.32372,-2.141571 7.38605,-3.909856 16.03026,-6.9778097 16.16547,-7.1051537 22.11209,-20.8256377 3.03054,-6.9923033 4.38807,-9.5399673 5.08341,-9.5399673 0.68425,0 1.84248,2.058203 4.15504,7.3835553 4.53409,10.441089 6.30604,13.61112 8.80199,15.746845 1.24311,1.0636947 6.36826,3.7192327 11.88466,6.1578957 5.33445,2.358236 9.699,4.601404 9.699,4.984825 0,1.08711 -0.80342,1.523949 -10.31259,5.607183 -7.91492,3.398671 -9.26415,4.176769 -11.98491,6.911671 -2.68349,2.697455 -3.50994,4.124426 -6.62596,11.440595 -3.87082,9.088388 -4.8013,10.866364 -5.68678,10.866364 -0.31947,0 -1.41076,-1.818026 -2.42508,-4.040059 z M 205.79087,6.8472343 c -4.79095,-11.040174 -4.84329,-11.100867 -12.65296,-14.672325 -3.21232,-1.469033 -5.76883,-2.8861333 -5.68114,-3.1491113 0.0877,-0.262978 2.66462,-1.606018 5.72652,-2.984532 3.0619,-1.378515 6.24202,-3.193394 7.06695,-4.033066 0.82493,-0.839672 2.58568,-3.99818 3.91278,-7.018908 1.32711,-3.020727 2.65858,-5.49223 2.95883,-5.49223 0.30024,0 1.63172,2.471503 2.95882,5.49223 1.3271,3.020728 3.08563,6.173818 3.90783,7.006868 0.8222,0.83305 4.00338,2.64219 7.06928,4.020313 3.06591,1.378121 5.57437,2.774209 5.57437,3.102417 0,0.328207 -2.50846,1.7149103 -5.57437,3.0815633 -6.73542,3.002371 -8.15658,4.459313 -11.06658,11.345243 -1.18117,2.795 -2.37472,5.222151 -2.65234,5.39367 -0.27762,0.171519 -0.97421,-0.76994 -1.54799,-2.092132 z"
     id="path631" />
</svg>
